<?xml version="1.0" standalone="no"?>
<!DOCTYPE svg PUBLIC "-//W3C//DTD SVG 20010904//EN"
 "http://www.w3.org/TR/2001/REC-SVG-20010904/DTD/svg10.dtd">
<svg version="1.0" xmlns="http://www.w3.org/2000/svg"
 width="612.000000pt" height="408.000000pt" viewBox="0 0 612.000000 408.000000"
 preserveAspectRatio="xMidYMid meet">

<g transform="translate(0.000000,408.000000) scale(0.100000,-0.100000)"
fill="#000000" stroke="none">
<path d="M2820 3140 c-281 -60 -535 -233 -694 -473 -146 -219 -215 -491 -186
-737 55 -481 381 -859 845 -981 80 -21 111 -24 280 -23 161 0 202 4 267 22
436 120 733 430 830 867 17 77 19 115 15 260 -4 142 -9 184 -29 255 -61 208
-154 367 -298 510 -163 162 -354 263 -573 305 -113 21 -347 19 -457 -5z m457
-114 c363 -78 662 -367 761 -735 22 -83 25 -116 26 -251 0 -169 -15 -251 -71
-382 -134 -311 -411 -540 -732 -605 -99 -20 -303 -20 -401 0 -307 63 -582 282
-715 570 -61 131 -87 252 -88 407 -2 151 14 240 65 374 126 328 426 575 767
631 104 17 286 13 388 -9z"/>
<path d="M2670 2488 c-48 -25 -90 -89 -90 -138 0 -14 10 -46 23 -70 62 -124
233 -115 282 14 29 76 -4 163 -75 198 -47 24 -87 23 -140 -4z"/>
<path d="M3332 2503 c-34 -7 -99 -75 -107 -112 -25 -115 75 -220 187 -197 68
13 128 87 128 155 0 43 -33 105 -69 130 -30 22 -97 33 -139 24z"/>
<path d="M2405 1950 c-17 -19 -18 -26 -7 -78 15 -71 78 -201 129 -267 51 -65
142 -138 227 -182 307 -155 693 -56 882 228 82 124 127 272 92 307 -16 16 -73
15 -85 0 -6 -7 -20 -44 -31 -83 -103 -339 -486 -505 -800 -346 -136 69 -247
199 -292 344 -13 39 -28 78 -33 85 -15 19 -62 14 -82 -8z"/>
</g>
</svg>
